<svg width="461" height="347" viewBox="0 0 461 347" fill="none" xmlns="http://www.w3.org/2000/svg">
<rect x="0.0317383" y="26.6116" width="460" height="320" rx="5" fill="white"/>
<path d="M0.0317383 10.6116C0.0317383 5.08873 4.50889 0.611572 10.0317 0.611572H450.032C455.555 0.611572 460.032 5.08873 460.032 10.6116V36.6116H0.0317383V10.6116Z" fill="#2B2727"/>
<circle cx="15.4165" cy="17.251" r="4" fill="#C4C4C4"/>
<circle cx="30.5444" cy="17.251" r="4" fill="#C4C4C4"/>
<circle cx="45.6721" cy="17.251" r="4" fill="#C4C4C4"/>
<rect x="0.0317383" y="54.3032" width="460" height="22.5867" fill="#165FA9"/>
<rect x="0.0317383" y="76.0249" width="49.6403" height="32.7092" fill="#165FA9"/>
<rect x="420.362" y="36.6116" width="39.6701" height="17.7389" fill="#F7B084"/>
<rect x="0.0317383" y="36.5645" width="420.33" height="17.7389" fill="#F5F5F5"/>
<rect x="432.362" y="43.981" width="20.4697" height="3" rx="1" fill="#312B2D" fill-opacity="0.65"/>
<rect x="271.032" y="43.981" width="112.239" height="3" rx="1" fill="#312B2D" fill-opacity="0.65"/>
<rect x="57.0317" y="43.981" width="59.4545" height="3" rx="1" fill="#312B2D" fill-opacity="0.65"/>
<rect x="137.032" y="43.981" width="59.4545" height="3" rx="1" fill="#312B2D" fill-opacity="0.65"/>
<rect x="57.0317" y="63.5999" width="22.6052" height="3.99382" rx="1" fill="#F0F4F8" fill-opacity="0.95"/>
<rect x="93.8809" y="63.5999" width="32.3413" height="3.99382" rx="1" fill="#F0F4F8" fill-opacity="0.95"/>
<rect x="140.466" y="63.5999" width="26.1376" height="3.99382" rx="1" fill="#F0F4F8" fill-opacity="0.95"/>
<rect x="379.874" y="64.5999" width="16.891" height="2.83524" rx="1" fill="#F0F4F8" fill-opacity="0.95"/>
<rect x="138.357" y="227.864" width="78.1185" height="8.77685" rx="1" fill="white" fill-opacity="0.95"/>
<rect x="138.857" y="228.364" width="77.1185" height="7.77685" rx="0.5" stroke="#CFD8E2" stroke-opacity="0.95"/>
<rect x="138.357" y="223.932" width="21.138" height="2.27118" rx="1" fill="#312B2D" fill-opacity="0.65"/>
<rect x="138.357" y="249.864" width="148" height="8.77685" rx="1" fill="#F3F7FB"/>
<circle cx="144.334" cy="254.252" r="2.12383" fill="white" fill-opacity="0.65"/>
<circle cx="144.334" cy="254.252" r="1.97383" stroke="#312B2D" stroke-opacity="0.65" stroke-width="0.3"/>
<rect x="138.357" y="244.932" width="70.5537" height="2.27118" rx="1" fill="#312B2D" fill-opacity="0.65"/>
<rect x="151" y="253.231" width="21.138" height="1.15644" rx="0.578219" fill="#312B2D" fill-opacity="0.65"/>
<rect x="138.357" y="259.864" width="148" height="8.77685" rx="1" fill="#F3F7FB"/>
<circle cx="144.334" cy="264.252" r="2.12383" fill="white" fill-opacity="0.65"/>
<circle cx="144.334" cy="264.252" r="1.97383" stroke="#312B2D" stroke-opacity="0.65" stroke-width="0.3"/>
<rect x="151" y="263.231" width="21.138" height="1.15644" rx="0.578219" fill="#312B2D" fill-opacity="0.65"/>
<rect x="138.357" y="269.864" width="148" height="8.77685" rx="1" fill="#F3F7FB"/>
<circle cx="144.334" cy="274.252" r="2.12383" fill="white" fill-opacity="0.65"/>
<circle cx="144.334" cy="274.252" r="1.97383" stroke="#312B2D" stroke-opacity="0.65" stroke-width="0.3"/>
<rect x="151" y="273.231" width="21.138" height="1.15644" rx="0.578219" fill="#312B2D" fill-opacity="0.65"/>
<rect x="176.919" y="224.207" width="10.9407" height="2.27118" rx="1" fill="#312B2D" fill-opacity="0.65"/>
<rect x="137.881" y="134.309" width="78.1185" height="8.77685" rx="1" fill="#312B2D" fill-opacity="0.65"/>
<rect x="138.357" y="186.027" width="148" height="8.77685" rx="1" fill="white" fill-opacity="0.95"/>
<rect x="138.857" y="186.527" width="147" height="7.77685" rx="0.5" stroke="#CFD8E2" stroke-opacity="0.95"/>
<rect x="138.357" y="166.732" width="57.7342" height="5.64792" rx="1" fill="#312B2D" fill-opacity="0.65"/>
<rect x="138.357" y="182.096" width="21.138" height="2.27118" rx="1" fill="#312B2D" fill-opacity="0.65"/>
<rect x="138.357" y="206.946" width="78.1185" height="8.77685" rx="1" fill="white" fill-opacity="0.95"/>
<rect x="138.857" y="207.446" width="77.1185" height="7.77685" rx="0.5" stroke="#CFD8E2" stroke-opacity="0.95"/>
<rect x="138.357" y="203.014" width="21.138" height="2.27118" rx="1" fill="#312B2D" fill-opacity="0.65"/>
<rect x="138.357" y="206.946" width="148" height="8.77685" rx="1" fill="white" fill-opacity="0.95"/>
<rect x="138.857" y="207.446" width="147" height="7.77685" rx="0.5" stroke="#CFD8E2" stroke-opacity="0.95"/>
<rect x="138.357" y="203.014" width="21.138" height="2.27118" rx="1" fill="#312B2D" fill-opacity="0.65"/>
<rect x="138.205" y="147.938" width="72.1533" height="2.54535" rx="1" fill="#312B2D" fill-opacity="0.65"/>
<rect x="213.572" y="147.938" width="17.8278" height="2.54535" rx="1" fill="#165FA9"/>
<rect x="163.072" y="223.932" width="10.4083" height="2.54535" rx="1" fill="#165FA9"/>
<rect x="410.391" y="76.8901" width="49.6403" height="32.7092" fill="#165FA9"/>
<circle cx="372.75" cy="66.0174" r="3.97762" fill="#F0F4F8"/>
<circle cx="135.363" cy="93.7483" r="6.11693" fill="#312B2D" fill-opacity="0.65"/>
<rect x="128.574" y="102.174" width="13.5765" height="1.5" rx="0.749998" fill="#312B2D" fill-opacity="0.65"/>
<path d="M144.249 94.5032C143.918 94.5032 143.649 94.2348 143.649 93.9037V93.9037C143.649 93.5726 143.918 93.3042 144.249 93.3042L145.704 93.3042C146.035 93.3042 146.303 93.5726 146.303 93.9037V93.9037C146.303 94.2348 146.035 94.5032 145.704 94.5032L144.249 94.5032Z" fill="#E5E5E5"/>
<path d="M148.365 94.5032C148.034 94.5032 147.765 94.2348 147.765 93.9037V93.9037C147.765 93.5726 148.034 93.3042 148.365 93.3042L149.82 93.3042C150.151 93.3042 150.419 93.5726 150.419 93.9037V93.9037C150.419 94.2348 150.151 94.5032 149.82 94.5032L148.365 94.5032Z" fill="#E5E5E5"/>
<path d="M152.481 94.5032C152.149 94.5032 151.881 94.2348 151.881 93.9037V93.9037C151.881 93.5726 152.149 93.3042 152.481 93.3042L153.935 93.3042C154.266 93.3042 154.535 93.5726 154.535 93.9037V93.9037C154.535 94.2348 154.266 94.5032 153.935 94.5032L152.481 94.5032Z" fill="#E5E5E5"/>
<path d="M156.596 94.5032C156.265 94.5032 155.997 94.2348 155.997 93.9037V93.9037C155.997 93.5726 156.265 93.3042 156.596 93.3042L158.051 93.3042C158.382 93.3042 158.651 93.5726 158.651 93.9037V93.9037C158.651 94.2348 158.382 94.5032 158.051 94.5032L156.596 94.5032Z" fill="#E5E5E5"/>
<circle cx="166.919" cy="93.7483" r="6.11693" fill="#312B2D" fill-opacity="0.65"/>
<rect x="160.13" y="102.174" width="13.5765" height="1.5" rx="0.749998" fill="#312B2D" fill-opacity="0.65"/>
<path d="M175.805 94.5032C175.474 94.5032 175.206 94.2348 175.206 93.9037V93.9037C175.206 93.5726 175.474 93.3042 175.805 93.3042L177.26 93.3042C177.591 93.3042 177.859 93.5726 177.859 93.9037V93.9037C177.859 94.2348 177.591 94.5032 177.26 94.5032L175.805 94.5032Z" fill="#E5E5E5"/>
<path d="M179.921 94.5032C179.59 94.5032 179.322 94.2348 179.322 93.9037V93.9037C179.322 93.5726 179.59 93.3042 179.921 93.3042L181.376 93.3042C181.707 93.3042 181.975 93.5726 181.975 93.9037V93.9037C181.975 94.2348 181.707 94.5032 181.376 94.5032L179.921 94.5032Z" fill="#E5E5E5"/>
<path d="M184.037 94.5032C183.706 94.5032 183.437 94.2348 183.437 93.9037V93.9037C183.437 93.5726 183.706 93.3042 184.037 93.3042L185.491 93.3042C185.823 93.3042 186.091 93.5726 186.091 93.9037V93.9037C186.091 94.2348 185.823 94.5032 185.491 94.5032L184.037 94.5032Z" fill="#E5E5E5"/>
<path d="M188.152 94.5032C187.821 94.5032 187.553 94.2348 187.553 93.9037V93.9037C187.553 93.5726 187.821 93.3042 188.152 93.3042L189.607 93.3042C189.938 93.3042 190.207 93.5726 190.207 93.9037V93.9037C190.207 94.2348 189.938 94.5032 189.607 94.5032L188.152 94.5032Z" fill="#E5E5E5"/>
<circle cx="198.475" cy="93.7483" r="6.11693" fill="#E1EAF2"/>
<rect x="191.687" y="102.174" width="13.5765" height="1.5" rx="0.749998" fill="#312B2D" fill-opacity="0.44"/>
<path d="M207.362 94.5032C207.031 94.5032 206.762 94.2348 206.762 93.9037V93.9037C206.762 93.5726 207.031 93.3042 207.362 93.3042L208.816 93.3042C209.148 93.3042 209.416 93.5726 209.416 93.9037V93.9037C209.416 94.2348 209.148 94.5032 208.816 94.5032L207.362 94.5032Z" fill="#E5E5E5"/>
<path d="M211.478 94.5032C211.147 94.5032 210.878 94.2348 210.878 93.9037V93.9037C210.878 93.5726 211.147 93.3042 211.478 93.3042L212.932 93.3042C213.263 93.3042 213.532 93.5726 213.532 93.9037V93.9037C213.532 94.2348 213.263 94.5032 212.932 94.5032L211.478 94.5032Z" fill="#E5E5E5"/>
<path d="M215.593 94.5032C215.262 94.5032 214.994 94.2348 214.994 93.9037V93.9037C214.994 93.5726 215.262 93.3042 215.593 93.3042L217.048 93.3042C217.379 93.3042 217.648 93.5726 217.648 93.9037V93.9037C217.648 94.2348 217.379 94.5032 217.048 94.5032L215.593 94.5032Z" fill="#E5E5E5"/>
<path d="M219.709 94.5032C219.378 94.5032 219.11 94.2348 219.11 93.9037V93.9037C219.11 93.5726 219.378 93.3042 219.709 93.3042L221.164 93.3042C221.495 93.3042 221.763 93.5726 221.763 93.9037V93.9037C221.763 94.2348 221.495 94.5032 221.164 94.5032L219.709 94.5032Z" fill="#E5E5E5"/>
<circle cx="230.031" cy="93.7483" r="6.11693" fill="#E1EAF2"/>
<rect x="223.243" y="102.174" width="13.5765" height="1.5" rx="0.749998" fill="#312B2D" fill-opacity="0.44"/>
<path d="M238.918 94.5032C238.587 94.5032 238.318 94.2348 238.318 93.9037V93.9037C238.318 93.5726 238.587 93.3042 238.918 93.3042L240.373 93.3042C240.704 93.3042 240.972 93.5726 240.972 93.9037V93.9037C240.972 94.2348 240.704 94.5032 240.373 94.5032L238.918 94.5032Z" fill="#E5E5E5"/>
<path d="M243.034 94.5032C242.703 94.5032 242.434 94.2348 242.434 93.9037V93.9037C242.434 93.5726 242.703 93.3042 243.034 93.3042L244.489 93.3042C244.82 93.3042 245.088 93.5726 245.088 93.9037V93.9037C245.088 94.2348 244.82 94.5032 244.489 94.5032L243.034 94.5032Z" fill="#E5E5E5"/>
<path d="M247.15 94.5032C246.818 94.5032 246.55 94.2348 246.55 93.9037V93.9037C246.55 93.5726 246.818 93.3042 247.15 93.3042L248.604 93.3042C248.935 93.3042 249.204 93.5726 249.204 93.9037V93.9037C249.204 94.2348 248.935 94.5032 248.604 94.5032L247.15 94.5032Z" fill="#E5E5E5"/>
<path d="M251.265 94.5032C250.934 94.5032 250.666 94.2348 250.666 93.9037V93.9037C250.666 93.5726 250.934 93.3042 251.265 93.3042L252.72 93.3042C253.051 93.3042 253.319 93.5726 253.319 93.9037V93.9037C253.319 94.2348 253.051 94.5032 252.72 94.5032L251.265 94.5032Z" fill="#E5E5E5"/>
<circle cx="261.588" cy="93.7483" r="6.11693" fill="#E1EAF2"/>
<rect x="254.8" y="102.174" width="13.5765" height="1.5" rx="0.749998" fill="#312B2D" fill-opacity="0.44"/>
<path d="M270.474 94.5032C270.143 94.5032 269.875 94.2348 269.875 93.9037V93.9037C269.875 93.5726 270.143 93.3042 270.474 93.3042L271.929 93.3042C272.26 93.3042 272.529 93.5726 272.529 93.9037V93.9037C272.529 94.2348 272.26 94.5032 271.929 94.5032L270.474 94.5032Z" fill="#E5E5E5"/>
<path d="M274.59 94.5032C274.259 94.5032 273.991 94.2348 273.991 93.9037V93.9037C273.991 93.5726 274.259 93.3042 274.59 93.3042L276.045 93.3042C276.376 93.3042 276.645 93.5726 276.645 93.9037V93.9037C276.645 94.2348 276.376 94.5032 276.045 94.5032L274.59 94.5032Z" fill="#E5E5E5"/>
<path d="M278.706 94.5032C278.375 94.5032 278.107 94.2348 278.107 93.9037V93.9037C278.107 93.5726 278.375 93.3042 278.706 93.3042L280.161 93.3042C280.492 93.3042 280.76 93.5726 280.76 93.9037V93.9037C280.76 94.2348 280.492 94.5032 280.161 94.5032L278.706 94.5032Z" fill="#E5E5E5"/>
<path d="M282.822 94.5032C282.491 94.5032 282.222 94.2348 282.222 93.9037V93.9037C282.222 93.5726 282.491 93.3042 282.822 93.3042L284.277 93.3042C284.608 93.3042 284.876 93.5726 284.876 93.9037V93.9037C284.876 94.2348 284.608 94.5032 284.277 94.5032L282.822 94.5032Z" fill="#E5E5E5"/>
<circle cx="293.145" cy="93.7483" r="6.11693" fill="#E1EAF2"/>
<rect x="286.356" y="102.174" width="13.5765" height="1.5" rx="0.749998" fill="#312B2D" fill-opacity="0.44"/>
<path d="M302.031 94.5032C301.7 94.5032 301.432 94.2348 301.432 93.9037V93.9037C301.432 93.5726 301.7 93.3042 302.031 93.3042L303.486 93.3042C303.817 93.3042 304.085 93.5726 304.085 93.9037V93.9037C304.085 94.2348 303.817 94.5032 303.486 94.5032L302.031 94.5032Z" fill="#E5E5E5"/>
<path d="M306.147 94.5032C305.816 94.5032 305.548 94.2348 305.548 93.9037V93.9037C305.548 93.5726 305.816 93.3042 306.147 93.3042L307.602 93.3042C307.933 93.3042 308.201 93.5726 308.201 93.9037V93.9037C308.201 94.2348 307.933 94.5032 307.602 94.5032L306.147 94.5032Z" fill="#E5E5E5"/>
<path d="M310.263 94.5032C309.932 94.5032 309.663 94.2348 309.663 93.9037V93.9037C309.663 93.5726 309.932 93.3042 310.263 93.3042L311.718 93.3042C312.049 93.3042 312.317 93.5726 312.317 93.9037V93.9037C312.317 94.2348 312.049 94.5032 311.718 94.5032L310.263 94.5032Z" fill="#E5E5E5"/>
<path d="M314.379 94.5032C314.047 94.5032 313.779 94.2348 313.779 93.9037V93.9037C313.779 93.5726 314.047 93.3042 314.379 93.3042L315.833 93.3042C316.164 93.3042 316.433 93.5726 316.433 93.9037V93.9037C316.433 94.2348 316.164 94.5032 315.833 94.5032L314.379 94.5032Z" fill="#E5E5E5"/>
<circle cx="324.701" cy="93.7483" r="6.11693" fill="#E1EAF2"/>
<rect x="317.913" y="102.174" width="13.5765" height="1.5" rx="0.749998" fill="#312B2D" fill-opacity="0.44"/>
<rect x="136.273" y="286.882" width="153.564" height="54.3426" fill="white" stroke="#BEE4E7" stroke-dasharray="1 1"/>
<rect x="138.357" y="312.432" width="148" height="8.77685" rx="1" fill="#F3F7FB"/>
<circle cx="144.334" cy="316.821" r="2.12383" fill="white" fill-opacity="0.65"/>
<circle cx="144.334" cy="316.821" r="1.97383" stroke="#312B2D" stroke-opacity="0.65" stroke-width="0.3"/>
<rect x="151" y="315.8" width="21.138" height="1.15644" rx="0.578219" fill="#312B2D" fill-opacity="0.65"/>
<rect x="138.357" y="322.432" width="148" height="8.77685" rx="1" fill="#F3F7FB"/>
<circle cx="144.334" cy="326.821" r="2.12383" fill="white" fill-opacity="0.65"/>
<circle cx="144.334" cy="326.821" r="1.97383" stroke="#312B2D" stroke-opacity="0.65" stroke-width="0.3"/>
<rect x="151" y="325.8" width="21.138" height="1.15644" rx="0.578219" fill="#312B2D" fill-opacity="0.65"/>
<rect x="138.357" y="305.587" width="41.8033" height="2.27118" rx="1" fill="#312B2D" fill-opacity="0.65"/>
<rect x="136.802" y="287.279" width="152.538" height="12.5864" fill="#ECF9FB"/>
<rect x="139.138" y="292.994" width="21.138" height="1.15644" rx="0.578219" fill="#312B2D" fill-opacity="0.65"/>
<rect x="174.323" y="292.994" width="21.138" height="1.15644" rx="0.578219" fill="#312B2D" fill-opacity="0.65"/>
<rect x="162.481" y="292.993" width="10.4083" height="1.15644" rx="0.578219" fill="#165FA9"/>
</svg>
