<svg width="461" height="347" viewBox="0 0 461 347" fill="none" xmlns="http://www.w3.org/2000/svg">
<rect x="0.825684" y="26.9897" width="460" height="320" rx="5" fill="#552ACA"/>
<path d="M0.825684 10.9897C0.825684 5.4669 5.30284 0.989746 10.8257 0.989746H450.826C456.349 0.989746 460.826 5.4669 460.826 10.9897V36.9897H0.825684V10.9897Z" fill="#2B2727"/>
<rect x="35.8257" y="77.9897" width="125" height="13" rx="1" fill="#F0F4F8" fill-opacity="0.95"/>
<rect x="210.826" y="88.9897" width="125" height="15" rx="7.5" fill="#4A2899"/>
<rect x="210.826" y="114.99" width="119" height="15" rx="7.5" fill="#E8EAF6"/>
<rect x="35.8257" y="100.99" width="116" height="13" rx="1" fill="#F0F4F8" fill-opacity="0.95"/>
<rect x="35.8257" y="139.99" width="92" height="4" rx="1" fill="#D7BCFB" fill-opacity="0.65"/>
<rect x="35.8257" y="146.99" width="80" height="4" rx="1" fill="#D7BCFB" fill-opacity="0.65"/>
<rect x="35.8257" y="153.99" width="85" height="4" rx="1" fill="#D7BCFB" fill-opacity="0.65"/>
<rect x="35.8257" y="160.99" width="75" height="4" rx="1" fill="#D7BCFB" fill-opacity="0.65"/>
<rect x="220.826" y="94.9897" width="47" height="3" rx="1" fill="#D7BCFB" fill-opacity="0.65"/>
<rect x="220.826" y="120.99" width="99" height="3" rx="1" fill="#312B2D" fill-opacity="0.65"/>
<rect x="210.826" y="134.99" width="134" height="15" rx="7.5" fill="#E8EAF6"/>
<rect x="220.826" y="140.99" width="115" height="3" rx="1" fill="#312B2D" fill-opacity="0.65"/>
<rect x="210.826" y="154.99" width="69" height="15" rx="7.5" fill="#E8EAF6"/>
<rect x="220.826" y="160.99" width="52" height="3" rx="1" fill="#312B2D" fill-opacity="0.65"/>
<rect x="210.826" y="174.99" width="62" height="15" rx="7.5" fill="#E8EAF6"/>
<rect x="220.826" y="180.99" width="44" height="3" rx="1" fill="#312B2D" fill-opacity="0.65"/>
<rect x="210.826" y="194.99" width="102" height="15" rx="7.5" fill="#E8EAF6"/>
<rect x="220.826" y="200.99" width="85" height="3" rx="1" fill="#312B2D" fill-opacity="0.65"/>
<rect x="210.826" y="302.99" width="102" height="15" rx="7.5" fill="#E8EAF6"/>
<rect x="220.826" y="308.99" width="85" height="3" rx="1" fill="#312B2D" fill-opacity="0.65"/>
<rect x="210.826" y="214.99" width="113" height="15" rx="7.5" fill="#FEDE52"/>
<rect x="220.826" y="220.99" width="95" height="3" rx="1" fill="#312B2D" fill-opacity="0.65"/>
<rect x="35.8257" y="186.99" width="75" height="6" rx="1" fill="#F0F4F8" fill-opacity="0.95"/>
<rect x="237.826" y="242.99" width="75" height="6" rx="1" fill="#F0F4F8" fill-opacity="0.95"/>
<rect x="117.826" y="186.99" width="19" height="6" rx="1" fill="#FEDE52"/>
<rect x="327.826" y="96.6968" width="1" height="3.4796" transform="rotate(-45 327.826 96.6968)" fill="#D7BCFB" fill-opacity="0.65"/>
<circle cx="327.826" cy="95.9897" r="2" fill="#A688D9"/>
<rect x="224.826" y="242.99" width="6" height="6" rx="1" fill="#552ACA"/>
<rect x="225.326" y="243.49" width="5" height="5" rx="0.5" stroke="#F0F4F8" stroke-opacity="0.95"/>
<rect x="237.826" y="257.99" width="75" height="6" rx="1" fill="#FEDE52"/>
<rect x="225.326" y="258.49" width="5" height="5" rx="0.5" fill="#FEDE52" stroke="#FEDE52"/>
<rect x="237.826" y="272.99" width="75" height="6" rx="1" fill="#F0F4F8" fill-opacity="0.95"/>
<rect x="224.826" y="272.99" width="6" height="6" rx="1" fill="#552ACA"/>
<rect x="225.326" y="273.49" width="5" height="5" rx="0.5" stroke="#F0F4F8" stroke-opacity="0.95"/>
<rect x="237.826" y="287.99" width="75" height="6" rx="1" fill="#F0F4F8" fill-opacity="0.95"/>
<rect x="224.826" y="287.99" width="6" height="6" rx="1" fill="#552ACA"/>
<rect x="225.326" y="288.49" width="5" height="5" rx="0.5" stroke="#F0F4F8" stroke-opacity="0.95"/>
<line x1="225.677" y1="260.618" x2="227.378" y2="262.398" stroke="#552ACA" stroke-width="0.6"/>
<line x1="226.955" y1="262.388" x2="230.144" y2="259.345" stroke="#552ACA" stroke-width="0.6"/>
<rect x="369.396" y="38.9521" width="1.19894" height="2.65371" rx="0.599468" fill="#FEDE52"/>
<rect x="369.691" y="43.0625" width="1.19894" height="2.65371" rx="0.599468" transform="rotate(-14.0631 369.691 43.0625)" fill="#FEDE52"/>
<rect x="371.155" y="47.1931" width="1.19894" height="2.65371" rx="0.599468" transform="rotate(-34.6889 371.155 47.1931)" fill="#FEDE52"/>
<rect x="373.155" y="50.1931" width="1.19894" height="2.65371" rx="0.599468" transform="rotate(-34.6889 373.155 50.1931)" fill="#FEDE52"/>
<rect x="375.386" y="53.1741" width="1.19894" height="2.65371" rx="0.599468" transform="rotate(-41.7876 375.386 53.1741)" fill="#FEDE52"/>
<rect x="377.882" y="55.5601" width="1.19894" height="2.65371" rx="0.599468" transform="rotate(-52.0766 377.882 55.5601)" fill="#FEDE52"/>
<rect x="380.712" y="58.1895" width="1.19894" height="2.65371" rx="0.599468" transform="rotate(-56.389 380.712 58.1895)" fill="#FEDE52"/>
<rect x="383.679" y="60.2373" width="1.19894" height="2.65371" rx="0.599468" transform="rotate(-56.389 383.679 60.2373)" fill="#FEDE52"/>
<rect x="386.855" y="62.1819" width="1.19894" height="2.65371" rx="0.599468" transform="rotate(-63.4877 386.855 62.1819)" fill="#FEDE52"/>
<rect x="390.115" y="63.7764" width="1.19894" height="2.65371" rx="0.599468" transform="rotate(-73.7767 390.115 63.7764)" fill="#FEDE52"/>
<path d="M394.277 64.9464C393.962 64.843 393.791 64.5043 393.894 64.1898V64.1898C393.998 63.8752 394.336 63.704 394.651 63.8073L396.033 64.2613C396.348 64.3647 396.519 64.7034 396.416 65.018V65.018C396.312 65.3325 395.973 65.5037 395.659 65.4004L394.277 64.9464Z" fill="#FEDE52"/>
<rect x="397.322" y="65.989" width="1.19894" height="2.65371" rx="0.599468" transform="rotate(-72.8616 397.322 65.989)" fill="#FEDE52"/>
<rect x="400.76" y="67.0161" width="1.19894" height="2.65371" rx="0.599468" transform="rotate(-75.3741 400.76 67.0161)" fill="#FEDE52"/>
<rect x="404.181" y="67.7227" width="1.19894" height="2.65371" rx="0.599468" transform="rotate(-84.7635 404.181 67.7227)" fill="#FEDE52"/>
<rect x="407.886" y="67.6777" width="1.19894" height="2.65371" rx="0.599468" transform="rotate(-97.9135 407.886 67.6777)" fill="#FEDE52"/>
<rect x="413.554" y="65.074" width="1.19894" height="2.65371" rx="0.599468" transform="rotate(69.5578 413.554 65.074)" fill="#FEDE52"/>
<rect x="416.646" y="63.4656" width="1.19894" height="2.65371" rx="0.599468" transform="rotate(62.8885 416.646 63.4656)" fill="#FEDE52"/>
<rect x="419.857" y="61.7754" width="1.19894" height="2.65371" rx="0.599468" transform="rotate(62.8885 419.857 61.7754)" fill="#FEDE52"/>
<rect x="422.535" y="59.6938" width="1.19894" height="2.65371" rx="0.599468" transform="rotate(53.4289 422.535 59.6938)" fill="#FEDE52"/>
<rect x="425.193" y="57.1841" width="1.19894" height="2.65371" rx="0.599468" transform="rotate(43.9596 425.193 57.1841)" fill="#FEDE52"/>
<rect x="427.516" y="54.3086" width="1.19894" height="2.65371" rx="0.599468" transform="rotate(33.3789 427.516 54.3086)" fill="#FEDE52"/>
<rect x="428.465" y="51.4099" width="1.19894" height="2.65371" rx="0.599468" transform="rotate(17.4211 428.465 51.4099)" fill="#FEDE52"/>
<rect x="428.218" y="48.0239" width="1.19894" height="2.65371" rx="0.599468" transform="rotate(-6.47606 428.218 48.0239)" fill="#FEDE52"/>
<rect x="427.374" y="44.7964" width="1.19894" height="2.65371" rx="0.599468" transform="rotate(-17.4005 427.374 44.7964)" fill="#FEDE52"/>
<rect x="422.163" y="41.3276" width="1.19894" height="2.65371" rx="0.599468" transform="rotate(-73.2367 422.163 41.3276)" fill="#FEDE52"/>
<rect x="418.95" y="41.906" width="1.19894" height="2.65371" rx="0.599468" transform="rotate(-97.5896 418.95 41.906)" fill="#FEDE52"/>
<rect x="416.544" y="43.8074" width="1.19894" height="2.65371" rx="0.599468" transform="rotate(-132.207 416.544 43.8074)" fill="#FEDE52"/>
<rect x="415.071" y="46.8672" width="1.19894" height="2.65371" rx="0.599468" transform="rotate(-156.272 415.071 46.8672)" fill="#FEDE52"/>
<rect x="415.48" y="49.9751" width="1.19894" height="2.65371" rx="0.599468" transform="rotate(175.79 415.48 49.9751)" fill="#FEDE52"/>
<rect x="415.48" y="49.9751" width="1.19894" height="2.65371" rx="0.599468" transform="rotate(175.79 415.48 49.9751)" fill="#FEDE52"/>
<rect x="416.356" y="53.2686" width="1.19894" height="2.65371" rx="0.599468" transform="rotate(167.315 416.356 53.2686)" fill="#FEDE52"/>
<rect x="417.495" y="55.9734" width="1.19894" height="2.65371" rx="0.599468" transform="rotate(156.935 417.495 55.9734)" fill="#FEDE52"/>
<rect x="418.95" y="59.1167" width="1.19894" height="2.65371" rx="0.599468" transform="rotate(156.935 418.95 59.1167)" fill="#FEDE52"/>
<rect x="420.617" y="61.366" width="1.19894" height="2.65371" rx="0.599468" transform="rotate(142.434 420.617 61.366)" fill="#FEDE52"/>
<rect x="422.777" y="64.2861" width="1.19894" height="2.65371" rx="0.599468" transform="rotate(142.434 422.777 64.2861)" fill="#FEDE52"/>
<rect x="424.867" y="66.9014" width="1.19894" height="2.65371" rx="0.599468" transform="rotate(142.434 424.867 66.9014)" fill="#FEDE52"/>
<rect x="426.873" y="69.7358" width="1.19894" height="2.65371" rx="0.599468" transform="rotate(142.434 426.873 69.7358)" fill="#FEDE52"/>
<rect x="428.963" y="72.3511" width="1.19894" height="2.65371" rx="0.599468" transform="rotate(142.434 428.963 72.3511)" fill="#FEDE52"/>
<rect x="431.086" y="75.1853" width="1.19894" height="2.65371" rx="0.599468" transform="rotate(142.434 431.086 75.1853)" fill="#FEDE52"/>
<rect x="433.835" y="77.7449" width="1.19894" height="2.65371" rx="0.599468" transform="rotate(133.554 433.835 77.7449)" fill="#FEDE52"/>
<rect x="436.646" y="79.6409" width="1.19894" height="2.65371" rx="0.599468" transform="rotate(123.634 436.646 79.6409)" fill="#FEDE52"/>
<rect x="439.548" y="80.6392" width="1.19894" height="2.65371" rx="0.599468" transform="rotate(109.387 439.548 80.6392)" fill="#FEDE52"/>
<rect x="442.823" y="81.1758" width="1.19894" height="2.65371" rx="0.599468" transform="rotate(95.5083 442.823 81.1758)" fill="#FEDE52"/>
<rect x="446.061" y="81.335" width="1.19894" height="2.65371" rx="0.599468" transform="rotate(91.4889 446.061 81.335)" fill="#FEDE52"/>
<rect x="449.769" y="81.4038" width="1.19894" height="2.65371" rx="0.599468" transform="rotate(91.4889 449.769 81.4038)" fill="#FEDE52"/>
<rect x="452.971" y="81.4038" width="1.19894" height="2.65371" rx="0.599468" transform="rotate(91.4889 452.971 81.4038)" fill="#FEDE52"/>
<rect x="456.501" y="81.4434" width="1.19894" height="2.65371" rx="0.599468" transform="rotate(90.223 456.501 81.4434)" fill="#FEDE52"/>
<rect x="460.032" y="81.4536" width="1.19894" height="2.65371" rx="0.599468" transform="rotate(90.223 460.032 81.4536)" fill="#FEDE52"/>
<rect x="425.486" y="42.0168" width="1.19894" height="2.65371" rx="0.599468" transform="rotate(-35.0842 425.486 42.0168)" fill="#FEDE52"/>
<circle cx="16.2104" cy="17.6292" r="4" fill="#C4C4C4"/>
<circle cx="31.3384" cy="17.6292" r="4" fill="#C4C4C4"/>
<circle cx="46.4661" cy="17.6292" r="4" fill="#C4C4C4"/>
</svg>
