<svg width="461" height="347" viewBox="0 0 461 347" fill="none" xmlns="http://www.w3.org/2000/svg">
<rect x="0.756348" y="26.0428" width="460" height="320" rx="5" fill="#F9F9F9"/>
<path d="M0.756348 10.5085C0.756348 4.9857 5.2335 0.508545 10.7563 0.508545H450.756C456.279 0.508545 460.756 4.9857 460.756 10.5085V36.5085H0.756348V10.5085Z" fill="#2B2727"/>
<circle cx="16.1411" cy="17.1479" r="4" fill="#C4C4C4"/>
<circle cx="31.269" cy="17.1479" r="4" fill="#C4C4C4"/>
<circle cx="46.3967" cy="17.1479" r="4" fill="#C4C4C4"/>
<rect x="0.756348" y="36.4614" width="460" height="22.875" fill="white"/>
<path d="M0.756348 281.449H460.756V340.081C460.756 342.843 458.518 345.081 455.756 345.081H5.75635C2.99492 345.081 0.756348 342.843 0.756348 340.081V281.449Z" fill="white"/>
<rect x="87.3242" y="302.384" width="78.6349" height="30.2004" rx="1" fill="#F9F9F9"/>
<path d="M93.4805 314.258C93.4805 313.927 93.7491 313.658 94.0805 313.658H126.069C126.401 313.658 126.669 313.927 126.669 314.258V314.258C126.669 314.59 126.401 314.859 126.069 314.859H94.0805C93.7491 314.859 93.4805 314.59 93.4805 314.258V314.258Z" fill="#312B2D" fill-opacity="0.65"/>
<path d="M93.4526 316.865C93.4526 316.534 93.7213 316.265 94.0527 316.265H135.056C135.387 316.265 135.656 316.534 135.656 316.865V316.865C135.656 317.197 135.387 317.465 135.056 317.465H94.0527C93.7213 317.465 93.4526 317.197 93.4526 316.865V316.865Z" fill="#312B2D" fill-opacity="0.65"/>
<path d="M93.4805 319.472C93.4805 319.141 93.7491 318.872 94.0805 318.872H126.069C126.401 318.872 126.669 319.141 126.669 319.472V319.472C126.669 319.804 126.401 320.073 126.069 320.073H94.0805C93.7491 320.073 93.4805 319.804 93.4805 319.472V319.472Z" fill="#312B2D" fill-opacity="0.65"/>
<path d="M93.4526 322.079C93.4526 321.748 93.7213 321.479 94.0527 321.479H135.056C135.387 321.479 135.656 321.748 135.656 322.079V322.079C135.656 322.411 135.387 322.679 135.056 322.679H94.0527C93.7213 322.679 93.4526 322.411 93.4526 322.079V322.079Z" fill="#312B2D" fill-opacity="0.65"/>
<path d="M87.3801 294.947C87.3801 294.394 87.8278 293.947 88.3801 293.947H164.959C165.511 293.947 165.959 294.394 165.959 294.947V305.356H87.3801V294.947Z" fill="#D41270"/>
<rect x="111.503" y="298.516" width="30.3332" height="2.27118" rx="1" fill="white" fill-opacity="0.65"/>
<path d="M86.0552 101.535H375.457V124.41H86.0552V101.535Z" fill="white"/>
<rect x="39.3318" y="46.3989" width="25.2605" height="3.65576" rx="1" fill="#28277E"/>
<rect x="34.4238" y="50.0547" width="14.3095" height="4.31152" rx="2.15576" transform="rotate(-180 34.4238 50.0547)" fill="#28277E"/>
<rect x="105.622" y="155.125" width="21.138" height="2.27118" rx="1" fill="white" fill-opacity="0.65"/>
<rect x="25.1133" y="55.0537" width="14.3095" height="4.31152" rx="2.15576" transform="rotate(-90 25.1133 55.0537)" fill="#28277E"/>
<rect x="69.0591" y="46.3989" width="11.3026" height="3" rx="1" fill="#BF1077"/>
<path d="M98.4607 112.7C98.4607 112.148 98.9084 111.7 99.4607 111.7H129.219C129.771 111.7 130.219 112.148 130.219 112.7V113.246C130.219 113.798 129.771 114.246 129.219 114.246H99.4607C98.9084 114.246 98.4607 113.798 98.4607 113.246V112.7Z" fill="#312B2D" fill-opacity="0.65"/>
<rect x="262.013" y="111.7" width="75.7517" height="2.54535" rx="1" fill="#312B2D" fill-opacity="0.65"/>
<rect x="134.021" y="111.7" width="17.8278" height="2.54535" rx="1" fill="#043169"/>
<rect x="155.65" y="111.87" width="11.2067" height="2.54535" rx="1" fill="#312B2D" fill-opacity="0.65"/>
<rect x="194.907" y="111.87" width="11.2067" height="2.54535" rx="1" fill="#312B2D" fill-opacity="0.65"/>
<rect x="170.659" y="111.7" width="20.446" height="2.54535" rx="1" fill="#043169"/>
<rect x="210.31" y="111.7" width="47.9007" height="2.54535" rx="1" fill="#043169"/>
<rect x="341.567" y="111.87" width="29.7386" height="2.54535" rx="1" fill="#043169"/>
<rect x="203.302" y="82.7679" width="54.9094" height="5.9395" rx="1" fill="#043169"/>
<line x1="87.3242" y1="203.548" x2="145.059" y2="203.548" stroke="black" stroke-opacity="0.13" stroke-width="0.3"/>
<rect x="87.3242" y="142.703" width="67" height="128.062" rx="1" fill="white" fill-opacity="0.95"/>
<path d="M87.3242 135.266C87.3242 134.714 87.7719 134.266 88.3242 134.266H153.324C153.877 134.266 154.324 134.714 154.324 135.266V145.675H87.3242V135.266Z" fill="#78AB2C"/>
<path d="M96.2346 152.815C96.2346 152.484 96.5033 152.215 96.8347 152.215H135.056C135.387 152.215 135.656 152.484 135.656 152.815V152.815C135.656 153.146 135.387 153.415 135.056 153.415H96.8347C96.5033 153.415 96.2346 153.146 96.2346 152.815V152.815Z" fill="#312B2D" fill-opacity="0.65"/>
<path d="M96.2346 155.663C96.2346 155.331 96.5033 155.062 96.8347 155.062H131.102C131.434 155.062 131.702 155.331 131.702 155.663V155.663C131.702 155.994 131.434 156.263 131.102 156.263H96.8347C96.5033 156.263 96.2346 155.994 96.2346 155.663V155.663Z" fill="#312B2D" fill-opacity="0.65"/>
<path d="M96.2346 158.51C96.2346 158.178 96.5033 157.91 96.8347 157.91H133.213C133.544 157.91 133.813 158.178 133.813 158.51V158.51C133.813 158.841 133.544 159.11 133.213 159.11H96.8347C96.5033 159.11 96.2346 158.841 96.2346 158.51V158.51Z" fill="#312B2D" fill-opacity="0.65"/>
<path d="M96.2346 161.357C96.2346 161.026 96.5033 160.757 96.8347 160.757H128.824C129.155 160.757 129.424 161.026 129.424 161.357V161.357C129.424 161.689 129.155 161.957 128.824 161.957H96.8347C96.5033 161.957 96.2346 161.689 96.2346 161.357V161.357Z" fill="#312B2D" fill-opacity="0.65"/>
<rect x="95.822" y="173.066" width="50.0043" height="6.00244" rx="3.00122" fill="#78AB2C"/>
<rect x="96.2346" y="194.151" width="35.4678" height="2.80072" rx="1" fill="#043169"/>
<rect x="108.559" y="174.932" width="24.5305" height="2.27118" rx="1" fill="white" fill-opacity="0.65"/>
<rect x="108.559" y="138.835" width="24.5305" height="2.27118" rx="1" fill="white" fill-opacity="0.65"/>
<path d="M102.467 206.211C102.467 205.88 102.735 205.611 103.067 205.611H135.055C135.387 205.611 135.656 205.88 135.656 206.211V206.211C135.656 206.543 135.387 206.811 135.056 206.811H103.067C102.735 206.811 102.467 206.543 102.467 206.211V206.211Z" fill="#312B2D" fill-opacity="0.65"/>
<path d="M96.9071 205L98.1245 206.817H95.6898L96.9071 205Z" fill="#F3833D"/>
<path d="M102.467 212.211C102.467 211.88 102.735 211.611 103.067 211.611H135.056C135.387 211.611 135.656 211.88 135.656 212.211V212.211C135.656 212.543 135.387 212.811 135.056 212.811H103.067C102.735 212.811 102.467 212.543 102.467 212.211V212.211Z" fill="#312B2D" fill-opacity="0.65"/>
<path d="M96.9071 211L98.1245 212.817H95.6898L96.9071 211Z" fill="#F3833D"/>
<path d="M102.467 218.211C102.467 217.88 102.735 217.611 103.067 217.611H135.056C135.387 217.611 135.656 217.88 135.656 218.211V218.211C135.656 218.543 135.387 218.811 135.056 218.811H103.067C102.735 218.811 102.467 218.543 102.467 218.211V218.211Z" fill="#312B2D" fill-opacity="0.65"/>
<path d="M96.9071 217L98.1245 218.817H95.6898L96.9071 217Z" fill="#F3833D"/>
<path d="M102.467 223.281C102.467 222.949 102.735 222.681 103.067 222.681H135.055C135.387 222.681 135.656 222.949 135.656 223.281V223.281C135.656 223.612 135.387 223.881 135.056 223.881H103.067C102.735 223.881 102.467 223.612 102.467 223.281V223.281Z" fill="#312B2D" fill-opacity="0.65"/>
<path d="M96.9071 222.07L98.1245 223.886H95.6898L96.9071 222.07Z" fill="#F3833D"/>
<path d="M102.467 229.281C102.467 228.949 102.735 228.681 103.067 228.681H135.056C135.387 228.681 135.656 228.949 135.656 229.281V229.281C135.656 229.612 135.387 229.881 135.056 229.881H103.067C102.735 229.881 102.467 229.612 102.467 229.281V229.281Z" fill="#312B2D" fill-opacity="0.65"/>
<path d="M96.9071 228.069L98.1245 229.886H95.6898L96.9071 228.069Z" fill="#F3833D"/>
<path d="M102.467 235.281C102.467 234.949 102.735 234.681 103.067 234.681H135.056C135.387 234.681 135.656 234.949 135.656 235.281V235.281C135.656 235.612 135.387 235.881 135.056 235.881H103.067C102.735 235.881 102.467 235.612 102.467 235.281V235.281Z" fill="#312B2D" fill-opacity="0.65"/>
<path d="M96.9071 234.069L98.1245 235.886H95.6898L96.9071 234.069Z" fill="#F3833D"/>
<rect x="160.962" y="142.638" width="67" height="128.062" rx="1" fill="white" fill-opacity="0.95"/>
<path d="M160.962 135.201C160.962 134.648 161.41 134.201 161.962 134.201H226.962C227.514 134.201 227.962 134.648 227.962 135.201V145.61H160.962V135.201Z" fill="#D41270"/>
<path d="M169.873 152.749C169.873 152.418 170.141 152.149 170.473 152.149H208.694C209.025 152.149 209.294 152.418 209.294 152.749V152.749C209.294 153.081 209.025 153.349 208.694 153.349H170.473C170.141 153.349 169.873 153.081 169.873 152.749V152.749Z" fill="#312B2D" fill-opacity="0.65"/>
<path d="M169.873 155.597C169.873 155.266 170.141 154.997 170.473 154.997H204.74C205.072 154.997 205.34 155.266 205.34 155.597V155.597C205.34 155.928 205.072 156.197 204.74 156.197H170.473C170.141 156.197 169.873 155.928 169.873 155.597V155.597Z" fill="#312B2D" fill-opacity="0.65"/>
<path d="M169.873 158.444C169.873 158.113 170.141 157.844 170.473 157.844H206.85C207.182 157.844 207.45 158.113 207.45 158.444V158.444C207.45 158.775 207.182 159.044 206.85 159.044H170.473C170.141 159.044 169.873 158.775 169.873 158.444V158.444Z" fill="#312B2D" fill-opacity="0.65"/>
<path d="M169.873 161.292C169.873 160.96 170.141 160.692 170.473 160.692H202.462C202.793 160.692 203.062 160.96 203.062 161.292V161.292C203.062 161.623 202.793 161.892 202.462 161.892H170.473C170.141 161.892 169.873 161.623 169.873 161.292V161.292Z" fill="#312B2D" fill-opacity="0.65"/>
<rect x="169.46" y="173.001" width="50.0043" height="6.00244" rx="3.00122" fill="#78AB2C"/>
<rect x="169.873" y="194.085" width="35.4678" height="2.80072" rx="1" fill="#043169"/>
<rect x="182.197" y="174.866" width="24.5305" height="2.27118" rx="1" fill="white" fill-opacity="0.65"/>
<rect x="182.197" y="138.77" width="24.5305" height="2.27118" rx="1" fill="white" fill-opacity="0.65"/>
<path d="M176.104 206.146C176.104 205.814 176.373 205.546 176.705 205.546H208.693C209.025 205.546 209.293 205.814 209.293 206.146V206.146C209.293 206.477 209.025 206.746 208.693 206.746H176.705C176.373 206.746 176.104 206.477 176.104 206.146V206.146Z" fill="#312B2D" fill-opacity="0.65"/>
<path d="M170.545 204.935L171.762 206.751H169.328L170.545 204.935Z" fill="#F3833D"/>
<path d="M176.104 212.146C176.104 211.814 176.373 211.546 176.705 211.546H208.693C209.025 211.546 209.293 211.814 209.293 212.146V212.146C209.293 212.477 209.025 212.746 208.693 212.746H176.705C176.373 212.746 176.104 212.477 176.104 212.146V212.146Z" fill="#312B2D" fill-opacity="0.65"/>
<path d="M170.545 210.934L171.762 212.751H169.328L170.545 210.934Z" fill="#F3833D"/>
<path d="M176.104 218.146C176.104 217.814 176.373 217.546 176.705 217.546H208.693C209.025 217.546 209.293 217.814 209.293 218.146V218.146C209.293 218.477 209.025 218.746 208.693 218.746H176.705C176.373 218.746 176.104 218.477 176.104 218.146V218.146Z" fill="#312B2D" fill-opacity="0.65"/>
<path d="M170.545 216.934L171.762 218.751H169.328L170.545 216.934Z" fill="#F3833D"/>
<path d="M176.104 223.215C176.104 222.884 176.373 222.615 176.705 222.615H208.693C209.025 222.615 209.293 222.884 209.293 223.215V223.215C209.293 223.547 209.025 223.815 208.693 223.815H176.705C176.373 223.815 176.104 223.547 176.104 223.215V223.215Z" fill="#312B2D" fill-opacity="0.65"/>
<path d="M170.545 222.004L171.762 223.821H169.328L170.545 222.004Z" fill="#F3833D"/>
<path d="M176.104 229.215C176.104 228.884 176.373 228.615 176.705 228.615H208.693C209.025 228.615 209.293 228.884 209.293 229.215V229.215C209.293 229.547 209.025 229.815 208.693 229.815H176.705C176.373 229.815 176.104 229.547 176.104 229.215V229.215Z" fill="#312B2D" fill-opacity="0.65"/>
<path d="M170.545 228.004L171.762 229.821H169.328L170.545 228.004Z" fill="#F3833D"/>
<path d="M176.104 235.215C176.104 234.884 176.373 234.615 176.705 234.615H208.693C209.025 234.615 209.293 234.884 209.293 235.215V235.215C209.293 235.547 209.025 235.815 208.693 235.815H176.705C176.373 235.815 176.104 235.547 176.104 235.215V235.215Z" fill="#312B2D" fill-opacity="0.65"/>
<path d="M170.545 234.004L171.762 235.821H169.328L170.545 234.004Z" fill="#F3833D"/>
<rect x="234.6" y="142.638" width="67" height="128.062" rx="1" fill="white" fill-opacity="0.95"/>
<path d="M234.6 135.201C234.6 134.648 235.048 134.201 235.6 134.201H300.6C301.152 134.201 301.6 134.648 301.6 135.201V145.61H234.6V135.201Z" fill="#912C8D"/>
<path d="M243.51 152.749C243.51 152.418 243.779 152.149 244.111 152.149H282.331C282.663 152.149 282.931 152.418 282.931 152.749V152.749C282.931 153.081 282.663 153.349 282.331 153.349H244.111C243.779 153.349 243.51 153.081 243.51 152.749V152.749Z" fill="#312B2D" fill-opacity="0.65"/>
<path d="M243.51 155.597C243.51 155.266 243.779 154.997 244.111 154.997H278.378C278.71 154.997 278.978 155.266 278.978 155.597V155.597C278.978 155.928 278.71 156.197 278.378 156.197H244.111C243.779 156.197 243.51 155.928 243.51 155.597V155.597Z" fill="#312B2D" fill-opacity="0.65"/>
<path d="M243.51 158.444C243.51 158.113 243.779 157.844 244.111 157.844H280.488C280.82 157.844 281.088 158.113 281.088 158.444V158.444C281.088 158.775 280.82 159.044 280.488 159.044H244.111C243.779 159.044 243.51 158.775 243.51 158.444V158.444Z" fill="#312B2D" fill-opacity="0.65"/>
<path d="M243.51 161.292C243.51 160.96 243.779 160.692 244.111 160.692H276.099C276.431 160.692 276.699 160.96 276.699 161.292V161.292C276.699 161.623 276.431 161.892 276.099 161.892H244.111C243.779 161.892 243.51 161.623 243.51 161.292V161.292Z" fill="#312B2D" fill-opacity="0.65"/>
<rect x="243.098" y="173.001" width="50.0043" height="6.00244" rx="3.00122" fill="#78AB2C"/>
<path d="M275.513 307.161C275.513 306.609 275.96 306.161 276.513 306.161H307.702C308.254 306.161 308.702 306.609 308.702 307.161V307.269C308.702 307.822 308.254 308.269 307.702 308.269H276.513C275.96 308.269 275.513 307.822 275.513 307.269V307.161Z" fill="#043169"/>
<path d="M275.513 310.916C275.513 310.364 275.96 309.916 276.513 309.916H305.388C305.94 309.916 306.388 310.364 306.388 310.916V311.025C306.388 311.577 305.94 312.025 305.388 312.025H276.513C275.96 312.025 275.513 311.577 275.513 311.025V310.916Z" fill="#043169"/>
<path d="M275.513 314.737C275.513 314.185 275.96 313.737 276.513 313.737H301.7C302.252 313.737 302.7 314.185 302.7 314.737V314.845C302.7 315.398 302.252 315.845 301.7 315.845H276.513C275.96 315.845 275.513 315.398 275.513 314.845V314.737Z" fill="#043169"/>
<rect x="275.1" y="320.93" width="62.2497" height="11.6213" rx="5.81066" fill="#78AB2C"/>
<rect x="291.091" y="325.082" width="30.2681" height="3.31743" rx="1" fill="white" fill-opacity="0.65"/>
<rect x="243.51" y="194.085" width="35.4678" height="2.80072" rx="1" fill="#043169"/>
<rect x="255.835" y="174.866" width="24.5305" height="2.27118" rx="1" fill="white" fill-opacity="0.65"/>
<rect x="255.835" y="138.77" width="24.5305" height="2.27118" rx="1" fill="white" fill-opacity="0.65"/>
<path d="M249.742 206.146C249.742 205.814 250.011 205.546 250.342 205.546H282.331C282.663 205.546 282.931 205.814 282.931 206.146V206.146C282.931 206.477 282.663 206.746 282.331 206.746H250.342C250.011 206.746 249.742 206.477 249.742 206.146V206.146Z" fill="#312B2D" fill-opacity="0.65"/>
<path d="M244.183 204.935L245.4 206.751H242.966L244.183 204.935Z" fill="#F3833D"/>
<path d="M249.743 212.146C249.743 211.814 250.011 211.546 250.343 211.546H282.332C282.663 211.546 282.932 211.814 282.932 212.146V212.146C282.932 212.477 282.663 212.746 282.332 212.746H250.343C250.011 212.746 249.743 212.477 249.743 212.146V212.146Z" fill="#312B2D" fill-opacity="0.65"/>
<path d="M244.183 210.934L245.4 212.751H242.966L244.183 210.934Z" fill="#F3833D"/>
<path d="M249.743 218.146C249.743 217.814 250.011 217.546 250.343 217.546H282.332C282.663 217.546 282.932 217.814 282.932 218.146V218.146C282.932 218.477 282.663 218.746 282.332 218.746H250.343C250.011 218.746 249.743 218.477 249.743 218.146V218.146Z" fill="#312B2D" fill-opacity="0.65"/>
<path d="M244.183 216.934L245.4 218.751H242.966L244.183 216.934Z" fill="#F3833D"/>
<path d="M249.742 223.215C249.742 222.884 250.011 222.615 250.342 222.615H282.331C282.663 222.615 282.931 222.884 282.931 223.215V223.215C282.931 223.547 282.663 223.815 282.331 223.815H250.342C250.011 223.815 249.742 223.547 249.742 223.215V223.215Z" fill="#312B2D" fill-opacity="0.65"/>
<path d="M244.183 222.004L245.4 223.821H242.966L244.183 222.004Z" fill="#F3833D"/>
<path d="M249.743 229.215C249.743 228.884 250.011 228.615 250.343 228.615H282.332C282.663 228.615 282.932 228.884 282.932 229.215V229.215C282.932 229.547 282.663 229.815 282.332 229.815H250.343C250.011 229.815 249.743 229.547 249.743 229.215V229.215Z" fill="#312B2D" fill-opacity="0.65"/>
<path d="M244.183 228.004L245.4 229.821H242.966L244.183 228.004Z" fill="#F3833D"/>
<path d="M249.743 235.215C249.743 234.884 250.011 234.615 250.343 234.615H282.332C282.663 234.615 282.932 234.884 282.932 235.215V235.215C282.932 235.547 282.663 235.815 282.332 235.815H250.343C250.011 235.815 249.743 235.547 249.743 235.215V235.215Z" fill="#312B2D" fill-opacity="0.65"/>
<path d="M244.183 234.004L245.4 235.821H242.966L244.183 234.004Z" fill="#F3833D"/>
<rect x="306.457" y="135.201" width="68" height="77.194" rx="4" stroke="#A5A5A5" stroke-width="2" stroke-dasharray="3 3"/>
<rect x="177.105" y="294.947" width="76.6349" height="36.6377" rx="4" stroke="#A5A5A5" stroke-width="2" stroke-dasharray="3 3"/>
</svg>
